<svg xmlns="http://www.w3.org/2000/svg" xmlns:xlink="http://www.w3.org/1999/xlink" viewBox="0 0 807 322" xmlns:ev="http://www.w3.org/2001/xml-events" width="807" height="322"><defs><linearGradient x2="118" gradientUnits="userSpaceOnUse" y2="90" id="lg1" x1="14" y1="-14"><stop stop-color="#ff949a" offset="0.00"/><stop stop-color="#ff626e" offset="0.86"/><stop stop-color="#e75863" offset="1.00"/></linearGradient></defs><g transform="translate(5.5,5.5)" id="page1"><rect y="0" fill="none" x="0" width="797" height="312"/><g transform="translate(39.597300,38.555600)" id="shape1"><path fill-rule="nonzero" stroke="#ff7e79" fill="url(#lg1)" d="M132.3,57.6L132.3,18.0C132.3,8.1,124.2,.0,114.3,.0L18.0,.0C8.1,.0,.0,8.1,.0,18.0L.0,57.6C.0,67.5,8.1,75.6,18.0,75.6L114.3,75.6C124.2,75.6,132.3,67.5,132.3,57.6z" stroke-width="1"/><text style="fill:#ffffff;font-family:微软雅黑,PingFang SC,Mircrosoft YaHei,Arial;font-size:36.00pt" xml:space="preserve"><tspan y="47.3" style="font-size:18.00pt" x="16.1">new Vue</tspan></text></g><g transform="translate(235.026300,38.555600)" id="shape2"><path fill-rule="nonzero" stroke="#ff7e79" fill="url(#lg1)" d="M132.3,57.6L132.3,18.0C132.3,8.1,124.2,.0,114.3,.0L18.0,.0C8.1,.0,.0,8.1,.0,18.0L.0,57.6C.0,67.5,8.1,75.6,18.0,75.6L114.3,75.6C124.2,75.6,132.3,67.5,132.3,57.6z" stroke-width="1"/><text style="fill:#ffffff;font-family:微软雅黑,PingFang SC,Mircrosoft YaHei,Arial;font-size:36.00pt" xml:space="preserve"><tspan y="47.5" style="font-size:18.00pt" x="48.1">init</tspan></text></g><g transform="translate(430.455300,38.555600)" id="shape3"><path fill-rule="nonzero" stroke="#ff7e79" fill="url(#lg1)" d="M132.3,57.6L132.3,18.0C132.3,8.1,124.2,.0,114.3,.0L18.0,.0C8.1,.0,.0,8.1,.0,18.0L.0,57.6C.0,67.5,8.1,75.6,18.0,75.6L114.3,75.6C124.2,75.6,132.3,67.5,132.3,57.6z" stroke-width="1"/><text style="fill:#ffffff;font-family:微软雅黑,PingFang SC,Mircrosoft YaHei,Arial;font-size:36.00pt" xml:space="preserve"><tspan y="47.5" style="font-size:18.00pt" x="28.1">mount</tspan></text></g><g transform="translate(171.880000,76.350900)" id="shape4"><path stroke="#ff7e79" d="M.0,.0L57.1,.0" fill="none" stroke-width="1"/><path stroke="#ff7e79" stroke-linecap="round" fill="#ff7e79" d="M57.1,-3.0L63.1,.0L57.1,3.0L57.1,-3.0" stroke-width="1"/></g><g transform="translate(367.309000,76.350900)" id="shape5"><path stroke="#ff7e79" d="M.0,.0L57.1,.0" fill="none" stroke-width="1"/><path stroke="#ff7e79" stroke-linecap="round" fill="#ff7e79" d="M57.1,-3.0L63.1,.0L57.1,3.0L57.1,-3.0" stroke-width="1"/></g><g transform="translate(625.884300,38.555400)" id="shape6"><path fill-rule="nonzero" stroke="#ff7e79" fill="url(#lg1)" d="M132.3,57.6L132.3,18.0C132.3,8.1,124.2,.0,114.3,.0L18.0,.0C8.1,.0,.0,8.1,.0,18.0L.0,57.6C.0,67.5,8.1,75.6,18.0,75.6L114.3,75.6C124.2,75.6,132.3,67.5,132.3,57.6z" stroke-width="1"/><text style="fill:#ffffff;font-family:微软雅黑,PingFang SC,Mircrosoft YaHei,Arial;font-size:36.00pt" xml:space="preserve"><tspan y="47.3" style="font-size:18.00pt" x="21.1">compile</tspan></text></g><g transform="translate(625.884300,196.876700)" id="shape7"><path fill-rule="nonzero" stroke="#ff7e79" fill="url(#lg1)" d="M132.3,57.6L132.3,18.0C132.3,8.1,124.2,.0,114.3,.0L18.0,.0C8.1,.0,.0,8.1,.0,18.0L.0,57.6C.0,67.5,8.1,75.6,18.0,75.6L114.3,75.6C124.2,75.6,132.3,67.5,132.3,57.6z" stroke-width="1"/><text style="fill:#ffffff;font-family:微软雅黑,PingFang SC,Mircrosoft YaHei,Arial;font-size:36.00pt" xml:space="preserve"><tspan y="47.3" style="font-size:18.00pt" x="28.1">render</tspan></text></g><g transform="translate(430.455300,196.876700)" id="shape8"><path fill-rule="nonzero" stroke="#ff7e79" fill="url(#lg1)" d="M132.3,57.6L132.3,18.0C132.3,8.1,124.2,.0,114.3,.0L18.0,.0C8.1,.0,.0,8.1,.0,18.0L.0,57.6C.0,67.5,8.1,75.6,18.0,75.6L114.3,75.6C124.2,75.6,132.3,67.5,132.3,57.6z" stroke-width="1"/><text style="fill:#ffffff;font-family:微软雅黑,PingFang SC,Mircrosoft YaHei,Arial;font-size:36.00pt" xml:space="preserve"><tspan y="47.3" style="font-size:18.00pt" x="30.1">vnode</tspan></text></g><g transform="translate(235.026300,196.876700)" id="shape9"><path fill-rule="nonzero" stroke="#ff7e79" fill="url(#lg1)" d="M132.3,57.6L132.3,18.0C132.3,8.1,124.2,.0,114.3,.0L18.0,.0C8.1,.0,.0,8.1,.0,18.0L.0,57.6C.0,67.5,8.1,75.6,18.0,75.6L114.3,75.6C124.2,75.6,132.3,67.5,132.3,57.6z" stroke-width="1"/><text style="fill:#ffffff;font-family:微软雅黑,PingFang SC,Mircrosoft YaHei,Arial;font-size:36.00pt" xml:space="preserve"><tspan y="47.3" style="font-size:18.00pt" x="34.1">patch</tspan></text></g><g transform="translate(39.597300,196.876700)" id="shape10"><path fill-rule="nonzero" stroke="#ff7e79" fill="url(#lg1)" d="M132.3,57.6L132.3,18.0C132.3,8.1,124.2,.0,114.3,.0L18.0,.0C8.1,.0,.0,8.1,.0,18.0L.0,57.6C.0,67.5,8.1,75.6,18.0,75.6L114.3,75.6C124.2,75.6,132.3,67.5,132.3,57.6z" stroke-width="1"/><text style="fill:#ffffff;font-family:微软雅黑,PingFang SC,Mircrosoft YaHei,Arial;font-size:36.00pt" xml:space="preserve"><tspan y="47.3" style="font-size:18.00pt" x="35.6">DOM</tspan></text></g><g transform="translate(562.739000,76.350900)" id="shape11"><path stroke="#ff7e79" d="M.0,.0L57.1,-0.0" fill="none" stroke-width="1"/><path stroke="#ff7e79" stroke-linecap="round" fill="#ff7e79" d="M57.1,-3.0L63.1,-0.0L57.1,3.0L57.1,-3.0" stroke-width="1"/></g><g transform="translate(692.026000,114.146000)" id="shape12"><path stroke="#ff7e79" d="M.0,.0L.0,75.9" fill="none" stroke-width="1"/><path stroke="#ff7e79" stroke-linecap="round" fill="#ff7e79" d="M3.0,75.9L.0,81.9L-3.0,75.9L3.0,75.9" stroke-width="1"/></g><g transform="translate(430.455000,234.672000)" id="shape13"><path stroke="#ff7e79" d="M.0,.0L-56.2,.0" fill="none" stroke-width="1"/><path stroke="#ff7e79" stroke-linecap="round" fill="#ff7e79" d="M-56.2,3.0L-62.2,.0L-56.2,-3.0L-56.2,3.0" stroke-width="1"/></g><g transform="translate(235.026000,234.672000)" id="shape14"><path stroke="#ff7e79" d="M.0,.0L-57.1,-0.0" fill="none" stroke-width="1"/><path stroke="#ff7e79" stroke-linecap="round" fill="#ff7e79" d="M-57.1,3.0L-63.1,-0.0L-57.1,-3.0L-57.1,3.0" stroke-width="1"/></g><g transform="translate(625.884000,234.672000)" id="shape15"><path stroke="#ff7e79" d="M.0,.0L-57.1,.0" fill="none" stroke-width="1"/><path stroke="#ff7e79" stroke-linecap="round" fill="#ff7e79" d="M-57.1,3.0L-63.1,.0L-57.1,-3.0L-57.1,3.0" stroke-width="1"/></g></g></svg>