<svg width="1392" xmlns:ev="http://www.w3.org/2001/xml-events" viewBox="0 0 1392 232" xmlns="http://www.w3.org/2000/svg" height="232" xmlns:xlink="http://www.w3.org/1999/xlink"><defs/><g transform="translate(5.5,5.5)" id="page1"><rect width="1382" fill="none" y="0" height="222" x="0"/><g transform="translate(978.141661,38.992260)" id="group1"><path fill-rule="nonzero" transform="translate(0.000200,-0.000000)" fill="#ffffff" stroke-width="1" id="shape2" d="M182.3,109.4L182.3,.0L.0,.0L.0,109.4L182.3,109.4z" stroke="#101843"/><path fill-rule="nonzero" transform="translate(182.284200,-0.000000)" fill="#ffffff" stroke-width="1" id="shape3" d="M182.3,109.4L182.3,.0L.0,.0L.0,109.4L182.3,109.4z" stroke="#101843"/><g transform="translate(31.641750,19.408050)" id="shape4"><path fill-rule="nonzero" fill="#ffffff" stroke-width="1" d="M40.8,35.5L40.8,.0L.0,.0L.0,35.5L40.8,35.5z" stroke="#101843"/><text xml:space="preserve" style="fill:#191919;font-family:微软雅黑,PingFang SC,Mircrosoft YaHei,Arial;font-size:15.00pt"><tspan y="23.2" style="font-size:10.00pt" x="4.9">ObjA</tspan></text></g><g transform="translate(213.925700,116.858000)" id="shape5"><text xml:space="preserve" style="fill:#191919;font-family:微软雅黑,PingFang SC,Mircrosoft YaHei,Arial;font-size:15.00pt"><tspan y="19.0" style="font-size:10.00pt" x="52.0">To</tspan></text></g><g transform="translate(31.641700,116.858000)" id="shape6"><text xml:space="preserve" style="fill:#191919;font-family:微软雅黑,PingFang SC,Mircrosoft YaHei,Arial;font-size:15.00pt"><tspan y="19.0" style="font-size:10.00pt" x="43.5">From</tspan></text></g><g transform="translate(97.025750,19.408050)" id="shape7"><path fill-rule="nonzero" fill="#ffffff" stroke-width="1" d="M40.8,35.5L40.8,.0L.0,.0L.0,35.5L40.8,35.5z" stroke="#101843"/><text xml:space="preserve" style="fill:#191919;font-family:微软雅黑,PingFang SC,Mircrosoft YaHei,Arial;font-size:15.00pt"><tspan y="23.2" style="font-size:10.00pt" x="5.4">ObjB</tspan></text></g></g><g transform="translate(508.456622,38.992260)" id="group8"><path fill-rule="nonzero" transform="translate(0.000200,0.000000)" fill="#ffffff" stroke-width="1" id="shape9" d="M182.3,109.4L182.3,.0L.0,.0L.0,109.4L182.3,109.4z" stroke="#101843"/><path fill-rule="nonzero" transform="translate(182.284200,0.000000)" fill="#ffffff" stroke-width="1" id="shape10" d="M182.3,109.4L182.3,.0L.0,.0L.0,109.4L182.3,109.4z" stroke="#101843"/><g transform="translate(31.641650,19.408050)" id="shape11"><path fill-rule="nonzero" fill="#ffffff" stroke-width="1" d="M40.8,35.5L40.8,.0L.0,.0L.0,35.5L40.8,35.5z" stroke="#101843"/><text xml:space="preserve" style="fill:#191919;font-family:微软雅黑,PingFang SC,Mircrosoft YaHei,Arial;font-size:15.00pt"><tspan y="23.2" style="font-size:10.00pt" x="4.9">ObjA</tspan></text></g><g transform="translate(213.925700,116.858000)" id="shape12"><text xml:space="preserve" style="fill:#191919;font-family:微软雅黑,PingFang SC,Mircrosoft YaHei,Arial;font-size:15.00pt"><tspan y="19.0" style="font-size:10.00pt" x="43.5">From</tspan></text></g><g transform="translate(31.641700,116.858000)" id="shape13"><text xml:space="preserve" style="fill:#191919;font-family:微软雅黑,PingFang SC,Mircrosoft YaHei,Arial;font-size:15.00pt"><tspan y="19.0" style="font-size:10.00pt" x="52.0">To</tspan></text></g><g transform="translate(97.025361,19.407974)" id="shape14"><path fill-rule="nonzero" fill="#ffffff" stroke-width="1" d="M40.8,35.5L40.8,.0L.0,.0L.0,35.5L40.8,35.5z" stroke="#101843"/><text xml:space="preserve" style="fill:#191919;font-family:微软雅黑,PingFang SC,Mircrosoft YaHei,Arial;font-size:15.00pt"><tspan y="23.2" style="font-size:10.00pt" x="5.4">ObjB</tspan></text></g></g><g transform="translate(38.771654,38.992126)" id="group15"><path fill-rule="nonzero" transform="translate(0.000000,0.000000)" fill="#ffffff" stroke-width="1" id="shape16" d="M182.3,109.4L182.3,.0L.0,.0L.0,109.4L182.3,109.4z" stroke="#101843"/><path fill-rule="nonzero" transform="translate(182.283465,0.000000)" fill="#ffffff" stroke-width="1" id="shape17" d="M182.3,109.4L182.3,.0L.0,.0L.0,109.4L182.3,109.4z" stroke="#101843"/><g transform="translate(206.386704,19.408158)" id="shape18"><path fill-rule="nonzero" fill="#ffffff" stroke-width="1" d="M40.8,35.5L40.8,.0L.0,.0L.0,35.5L40.8,35.5z" stroke="#101843"/><text xml:space="preserve" style="fill:#191919;font-family:微软雅黑,PingFang SC,Mircrosoft YaHei,Arial;font-size:15.00pt"><tspan y="23.2" style="font-size:10.00pt" x="4.9">ObjA</tspan></text></g><g transform="translate(213.925197,116.858268)" id="shape19"><text xml:space="preserve" style="fill:#191919;font-family:微软雅黑,PingFang SC,Mircrosoft YaHei,Arial;font-size:15.00pt"><tspan y="19.0" style="font-size:10.00pt" x="43.5">From</tspan></text></g><g transform="translate(31.641732,116.858268)" id="shape20"><text xml:space="preserve" style="fill:#191919;font-family:微软雅黑,PingFang SC,Mircrosoft YaHei,Arial;font-size:15.00pt"><tspan y="19.0" style="font-size:10.00pt" x="52.0">To</tspan></text></g><g transform="translate(272.528436,19.408158)" id="shape21"><path fill-rule="nonzero" fill="#ffffff" stroke-width="1" d="M40.8,35.5L40.8,.0L.0,.0L.0,35.5L40.8,35.5z" stroke="#101843"/><text xml:space="preserve" style="fill:#191919;font-family:微软雅黑,PingFang SC,Mircrosoft YaHei,Arial;font-size:15.00pt"><tspan y="23.2" style="font-size:10.00pt" x="5.4">ObjB</tspan></text></g><g transform="translate(242.694667,65.383223)" id="shape22"><path fill-rule="nonzero" fill="#ffffff" stroke-width="1" d="M40.8,35.5L40.8,.0L.0,.0L.0,35.5L40.8,35.5z" stroke="#101843"/><text xml:space="preserve" style="fill:#191919;font-family:微软雅黑,PingFang SC,Mircrosoft YaHei,Arial;font-size:15.00pt"><tspan y="23.2" style="font-size:10.00pt" x="4.9">ObjC</tspan></text></g></g><g transform="translate(403.338583,93.677165)" id="shape23"><path fill="none" stroke-width="1" d="M.0,.0L99.1,.0" stroke="#191919"/><path stroke-linecap="round" fill="#191919" stroke-width="1" d="M99.1,-3.0L105.1,.0L99.1,3.0L99.1,-3.0" stroke="#191919"/></g><g transform="translate(874.000000,93.677260)" id="shape24"><path fill="none" stroke-width="1" d="M.0,.0L98.1,-0.0" stroke="#191919"/><path stroke-linecap="round" fill="#191919" stroke-width="1" d="M98.1,-3.0L104.1,-0.0L98.1,3.0L98.1,-3.0" stroke="#191919"/></g></g></svg>