<svg width="736" xmlns:ev="http://www.w3.org/2001/xml-events" viewBox="0 0 736 269" xmlns="http://www.w3.org/2000/svg" height="269" xmlns:xlink="http://www.w3.org/1999/xlink"><defs/><g transform="translate(5.5,5.5)" id="page1"><rect width="726" fill="none" y="0" height="259" x="0"/><g transform="translate(39.078740,38.464567)" id="shape1"><path fill-rule="nonzero" fill="#ffffff" stroke-width="1" d="M100.0,60.0L100.0,.0L.0,.0L.0,60.0L100.0,60.0z" stroke="#101843"/><text xml:space="preserve" style="fill:#191919;font-family:微软雅黑,PingFang SC,Mircrosoft YaHei,Arial;font-size:15.00pt"><tspan y="35.5" style="font-size:10.00pt" x="16.0">SourcCode</tspan></text></g><g transform="translate(313.094488,38.464567)" id="shape2"><path fill-rule="nonzero" fill="#ffffff" stroke-width="1" d="M100.0,60.0L100.0,.0L.0,.0L.0,60.0L100.0,60.0z" stroke="#101843"/><text xml:space="preserve" style="fill:#191919;font-family:微软雅黑,PingFang SC,Mircrosoft YaHei,Arial;font-size:15.00pt"><tspan y="35.5" style="font-size:10.00pt" x="38.0">AST</tspan></text></g><g transform="translate(587.110236,38.464567)" id="shape3"><path fill-rule="nonzero" fill="#ffffff" stroke-width="1" d="M100.0,60.0L100.0,.0L.0,.0L.0,60.0L100.0,60.0z" stroke="#101843"/><text xml:space="preserve" style="fill:#191919;font-family:微软雅黑,PingFang SC,Mircrosoft YaHei,Arial;font-size:15.00pt"><tspan y="26.0" style="font-size:10.00pt" x="20.5">ByteCode</tspan><tspan y="45.0" style="font-size:10.00pt" x="26.0">execute</tspan></text></g><g transform="translate(310.338583,159.645669)" id="shape4"><path fill-rule="nonzero" fill="#ffffff" stroke-width="1" d="M100.0,60.0L100.0,.0L.0,.0L.0,60.0L100.0,60.0z" stroke="#101843"/><text xml:space="preserve" style="fill:#191919;font-family:微软雅黑,PingFang SC,Mircrosoft YaHei,Arial;font-size:15.00pt"><tspan y="35.5" style="font-size:10.00pt" x="8.0">MashineCode</tspan></text></g><g transform="translate(183.566914,55.385817)" id="shape5"><path fill-rule="nonzero" fill="#ffffff" stroke-width="1" d="M13.1,26.2L72.0,26.2L72.0,26.2C79.2,26.2,85.0,20.3,85.0,13.1C85.0,5.9,79.2,.0,72.0,.0L13.1,.0L13.1,.0C5.9,.0,.0,5.9,.0,13.1C.0,20.3,5.9,26.2,13.1,26.2z" stroke="#101843"/><text xml:space="preserve" style="fill:#191919;font-family:微软雅黑,PingFang SC,Mircrosoft YaHei,Arial;font-size:15.00pt"><tspan y="18.6" style="font-size:10.00pt" x="23.5">Parser</tspan></text></g><g transform="translate(457.582662,50.885817)" id="shape6"><path fill-rule="nonzero" fill="#ffffff" stroke-width="1" d="M17.6,35.2L67.5,35.2L67.5,35.2C77.2,35.2,85.0,27.3,85.0,17.6C85.0,7.9,77.2,.0,67.5,.0L17.6,.0L17.6,.0C7.9,.0,.0,7.9,.0,17.6C.0,27.3,7.9,35.2,17.6,35.2z" stroke="#101843"/><text xml:space="preserve" style="fill:#191919;font-family:微软雅黑,PingFang SC,Mircrosoft YaHei,Arial;font-size:15.00pt"><tspan y="23.1" style="font-size:10.00pt" x="19.0">Ignition</tspan></text></g><g transform="translate(139.078740,68.464567)" id="shape7"><path fill="none" stroke-width="1" d="M.0,.0L38.5,-0.0" stroke="#191919"/><path stroke-linecap="round" fill="#191919" stroke-width="1" d="M38.5,-3.0L44.5,-0.0L38.5,3.0L38.5,-3.0" stroke="#191919"/></g><g transform="translate(268.606314,68.464517)" id="shape8"><path fill="none" stroke-width="1" d="M.0,.0L38.5,.0" stroke="#191919"/><path stroke-linecap="round" fill="#191919" stroke-width="1" d="M38.5,-3.0L44.5,.0L38.5,3.0L38.5,-3.0" stroke="#191919"/></g><g transform="translate(413.094488,68.464567)" id="shape9"><path fill="none" stroke-width="1" d="M.0,.0L38.0,.0" stroke="#191919"/><path stroke-linecap="round" fill="#191919" stroke-width="1" d="M38.0,-3.0L44.0,.0L38.0,3.0L38.0,-3.0" stroke="#191919"/></g><g transform="translate(542.622062,68.464567)" id="shape10"><path fill="none" stroke-width="1" d="M.0,.0L39.0,.0" stroke="#191919"/><path stroke-linecap="round" fill="#191919" stroke-width="1" d="M39.0,-3.0L45.0,.0L39.0,3.0L39.0,-3.0" stroke="#191919"/></g><g transform="translate(457.582647,172.066919)" id="shape11"><path fill-rule="nonzero" fill="#ffffff" stroke-width="1" d="M17.6,35.2L67.5,35.2L67.5,35.2C77.2,35.2,85.0,27.3,85.0,17.6C85.0,7.9,77.2,.0,67.5,.0L17.6,.0L17.6,.0C7.9,.0,.0,7.9,.0,17.6C.0,27.3,7.9,35.2,17.6,35.2z" stroke="#101843"/><text xml:space="preserve" style="fill:#191919;font-family:微软雅黑,PingFang SC,Mircrosoft YaHei,Arial;font-size:15.00pt"><tspan y="23.5" style="font-size:10.00pt" x="14.0">Turbofun</tspan></text></g><g transform="translate(500.102347,172.066919)" id="shape12"><path fill="none" stroke-width="1" d="M.0,.0L.0,-79.1" stroke="#191919"/><path stroke-linecap="round" fill="#191919" stroke-width="1" d="M-3.0,-79.1L.0,-85.1L3.0,-79.1L-3.0,-79.1" stroke="#191919"/><rect width="69.0" fill="#ffffff" y="-49.0" height="19.0" x="-33.5"/><text xml:space="preserve" style="fill:#191919;font-family:微软雅黑,PingFang SC,Mircrosoft YaHei,Arial;font-size:15.00pt"><tspan y="-34.0" style="font-size:10.00pt" x="-33.5">Deoptimize</tspan></text></g><g transform="translate(637.110236,98.464567)" id="shape13"><path fill="none" stroke-width="1" d="M.0,.0L.0,91.2L-88.5,91.2" stroke="#191919"/><path stroke-linecap="round" fill="#191919" stroke-width="1" d="M-88.5,94.2L-94.5,91.2L-88.5,88.2L-88.5,94.2" stroke="#191919"/><rect width="59.0" fill="#ffffff" y="28.4" height="19.0" x="-28.5"/><rect width="58.0" fill="#ffffff" y="47.4" height="19.0" x="-28.0"/><text xml:space="preserve" style="fill:#191919;font-family:微软雅黑,PingFang SC,Mircrosoft YaHei,Arial;font-size:15.00pt"><tspan y="43.4" style="font-size:10.00pt" x="-28.5">ByteCode</tspan><tspan y="62.4" style="font-size:10.00pt" x="-28.0">Feedback</tspan></text></g><g transform="translate(457.582647,189.645619)" id="shape14"><path fill="none" stroke-width="1" d="M.0,.0L-41.2,.0" stroke="#191919"/><path stroke-linecap="round" fill="#191919" stroke-width="1" d="M-41.2,3.0L-47.2,.0L-41.2,-3.0L-41.2,3.0" stroke="#191919"/></g></g></svg>