<svg height="492" width="455" xmlns:xlink="http://www.w3.org/1999/xlink" xmlns:ev="http://www.w3.org/2001/xml-events" xmlns="http://www.w3.org/2000/svg" viewBox="0 0 455 492"><defs/><g id="page1" transform="translate(5.5,5.5)"><rect height="482" x="0" width="445" fill="none" y="0"/><g id="shape1" transform="translate(197.000000,39.000000)"><path fill="#ffffff" d="M22.0,44.0L78.0,44.0L78.0,44.0C90.2,44.0,100.0,34.2,100.0,22.0C100.0,9.8,90.2,.0,78.0,.0L22.0,.0L22.0,.0C9.8,.0,.0,9.8,.0,22.0C.0,34.2,9.8,44.0,22.0,44.0z" stroke-width="1" fill-rule="nonzero" stroke="#101843"/><text style="fill:#191919;font-family:微软雅黑,PingFang SC,Mircrosoft YaHei,Arial;font-size:15.00pt" xml:space="preserve"><tspan x="30.5" y="27.5" style="font-size:10.00pt">宏任务</tspan></text></g><g id="shape2" transform="translate(247.000000,83.000000)"><path fill="none" stroke-width="1" d="M.0,.0L.0,54.0" stroke="#191919"/><path fill="#191919" stroke-width="1" d="M3.0,54.0L.0,60.0L-3.0,54.0L3.0,54.0" stroke="#191919" stroke-linecap="round"/></g><g id="shape3" transform="translate(197.000000,143.000000)"><path fill="#ffffff" d="M100.0,60.0L100.0,.0L.0,.0L.0,60.0L100.0,60.0z" stroke-width="1" fill-rule="nonzero" stroke="#101843"/><text style="fill:#191919;font-family:微软雅黑,PingFang SC,Mircrosoft YaHei,Arial;font-size:15.00pt" xml:space="preserve"><tspan x="24.0" y="35.5" style="font-size:10.00pt">执行结束</tspan></text></g><g id="shape4" transform="translate(247.000000,203.000000)"><path fill="none" stroke-width="1" d="M.0,.0L.0,33.0" stroke="#191919"/><path fill="#191919" stroke-width="1" d="M3.0,33.0L.0,39.0L-3.0,33.0L3.0,33.0" stroke="#191919" stroke-linecap="round"/></g><g id="shape5" transform="translate(161.704724,242.218750)"><path fill="#ffffff" d="M85.3,89.8L170.6,44.9L85.3,.0L.0,44.9L85.3,89.8z" stroke-width="1" fill-rule="nonzero" stroke="#101843"/><text style="fill:#191919;font-family:微软雅黑,PingFang SC,Mircrosoft YaHei,Arial;font-size:15.00pt" xml:space="preserve"><tspan x="33.3" y="40.9" style="font-size:10.00pt">是否存在可执行的</tspan><tspan x="65.8" y="59.9" style="font-size:10.00pt">微任务</tspan></text></g><g id="shape6" transform="translate(247.000000,331.992126)"><path fill="none" stroke-width="1" d="M.0,.0L.0,46.0" stroke="#191919"/><path fill="#191919" stroke-width="1" d="M3.0,46.0L.0,52.0L-3.0,46.0L3.0,46.0" stroke="#191919" stroke-linecap="round"/><rect height="19.0" x="-5.5" width="13.0" fill="#ffffff" y="16.5"/><text style="fill:#191919;font-family:微软雅黑,PingFang SC,Mircrosoft YaHei,Arial;font-size:15.00pt" xml:space="preserve"><tspan x="-5.5" y="31.5" style="font-size:10.00pt">是</tspan></text></g><g id="shape7" transform="translate(197.000000,383.000000)"><path fill="#ffffff" d="M100.0,60.0L100.0,.0L.0,.0L.0,60.0L100.0,60.0z" stroke-width="1" fill-rule="nonzero" stroke="#101843"/><text style="fill:#191919;font-family:微软雅黑,PingFang SC,Mircrosoft YaHei,Arial;font-size:15.00pt" xml:space="preserve"><tspan x="24.0" y="26.0" style="font-size:10.00pt">执行当前</tspan><tspan x="17.5" y="45.0" style="font-size:10.00pt">所有微任务</tspan></text></g><g id="shape8" transform="translate(332.295276,287.105438)"><path fill="none" stroke-width="1" d="M.0,.0L62.9,.0L62.9,-226.1L-29.3,-226.1" stroke="#191919"/><path fill="#191919" stroke-width="1" d="M-29.3,-223.1L-35.3,-226.1L-29.3,-229.1L-29.3,-223.1" stroke="#191919" stroke-linecap="round"/><rect height="19.0" x="57.4" width="13.0" fill="#ffffff" y="-140.2"/><text style="fill:#191919;font-family:微软雅黑,PingFang SC,Mircrosoft YaHei,Arial;font-size:15.00pt" xml:space="preserve"><tspan x="57.4" y="-125.2" style="font-size:10.00pt">否</tspan></text></g><g id="shape9" transform="translate(197.000000,413.000000)"><path fill="none" stroke-width="1" d="M.0,.0L-108.1,.0L-108.1,-352.0L-6.0,-352.0" stroke="#191919"/><path fill="#191919" stroke-width="1" d="M-6.0,-355.0L.0,-352.0L-6.0,-349.0L-6.0,-355.0" stroke="#191919" stroke-linecap="round"/><rect height="19.0" x="-152.6" width="91.0" fill="#ffffff" y="-190.8"/><text style="fill:#191919;font-family:微软雅黑,PingFang SC,Mircrosoft YaHei,Arial;font-size:15.00pt" xml:space="preserve"><tspan x="-152.6" y="-175.8" style="font-size:10.00pt">开始新的宏任务</tspan></text></g></g></svg>