<svg width="969" xmlns:ev="http://www.w3.org/2001/xml-events" viewBox="0 0 969 344" xmlns="http://www.w3.org/2000/svg" height="344" xmlns:xlink="http://www.w3.org/1999/xlink"><defs/><g transform="translate(5.5,5.5)" id="page1"><rect width="959" fill="none" y="0" height="334" x="0"/><g transform="translate(47.976378,38.748031)" id="shape1"><path fill-rule="nonzero" fill="#ffffff" stroke-width="1" d="M100.0,60.0L100.0,.0L.0,.0L.0,60.0L100.0,60.0z" stroke="#101843"/><text xml:space="preserve" style="fill:#191919;font-family:微软雅黑,PingFang SC,Mircrosoft YaHei,Arial;font-size:15.00pt"><tspan y="35.5" style="font-size:10.00pt" x="34.5">ObjA</tspan></text></g><g transform="translate(147.976378,38.748031)" id="shape2"><path fill-rule="nonzero" fill="#ffffff" stroke-width="1" d="M181.5,60.0L181.5,.0L.0,.0L.0,60.0L181.5,60.0z" stroke="#101843"/><text xml:space="preserve" style="fill:#191919;font-family:微软雅黑,PingFang SC,Mircrosoft YaHei,Arial;font-size:15.00pt"><tspan y="35.5" style="font-size:10.00pt" x="75.7">ObjB</tspan></text></g><g transform="translate(329.472441,38.748031)" id="shape3"><path fill-rule="nonzero" fill="#ffffff" stroke-width="1" d="M137.0,60.0L137.0,.0L.0,.0L.0,60.0L137.0,60.0z" stroke="#101843"/><text xml:space="preserve" style="fill:#191919;font-family:微软雅黑,PingFang SC,Mircrosoft YaHei,Arial;font-size:15.00pt"><tspan y="35.5" style="font-size:10.00pt" x="53.0">ObjC</tspan></text></g><path fill-rule="nonzero" transform="translate(466.480315,38.748031)" fill="#ffffff" stroke-width="1" id="shape4" d="M453.5,60.0L453.5,.0L.0,.0L.0,60.0L453.5,60.0z" stroke="#101843"/><g transform="translate(37.976378,100.183727)" id="shape5"><text xml:space="preserve" style="fill:#191919;font-family:微软雅黑,PingFang SC,Mircrosoft YaHei,Arial;font-size:15.00pt"><tspan y="19.0" style="font-size:10.00pt" x="56.0">1</tspan></text></g><g transform="translate(178.724409,102.850394)" id="shape6"><text xml:space="preserve" style="fill:#191919;font-family:微软雅黑,PingFang SC,Mircrosoft YaHei,Arial;font-size:15.00pt"><tspan y="19.0" style="font-size:10.00pt" x="56.0">0</tspan></text></g><g transform="translate(337.976378,102.850394)" id="shape7"><text xml:space="preserve" style="fill:#191919;font-family:微软雅黑,PingFang SC,Mircrosoft YaHei,Arial;font-size:15.00pt"><tspan y="19.0" style="font-size:10.00pt" x="56.0">1</tspan></text></g><g transform="translate(47.976500,204.378134)" id="shape8"><path fill-rule="nonzero" fill="#ffffff" stroke-width="1" d="M100.0,60.0L100.0,.0L.0,.0L.0,60.0L100.0,60.0z" stroke="#101843"/><text xml:space="preserve" style="fill:#191919;font-family:微软雅黑,PingFang SC,Mircrosoft YaHei,Arial;font-size:15.00pt"><tspan y="35.5" style="font-size:10.00pt" x="34.5">ObjA</tspan></text></g><path fill-rule="nonzero" transform="translate(147.976500,204.378134)" fill="#ffffff" stroke-width="1" id="shape9" d="M181.5,60.0L181.5,.0L.0,.0L.0,60.0L181.5,60.0z" stroke="#101843"/><g transform="translate(329.472600,204.378134)" id="shape10"><path fill-rule="nonzero" fill="#ffffff" stroke-width="1" d="M137.0,60.0L137.0,.0L.0,.0L.0,60.0L137.0,60.0z" stroke="#101843"/><text xml:space="preserve" style="fill:#191919;font-family:微软雅黑,PingFang SC,Mircrosoft YaHei,Arial;font-size:15.00pt"><tspan y="35.5" style="font-size:10.00pt" x="53.0">ObjC</tspan></text></g><path fill-rule="nonzero" transform="translate(466.480500,204.378134)" fill="#ffffff" stroke-width="1" id="shape11" d="M453.5,60.0L453.5,.0L.0,.0L.0,60.0L453.5,60.0z" stroke="#101843"/><g transform="translate(37.976500,265.814134)" id="shape12"><text xml:space="preserve" style="fill:#191919;font-family:微软雅黑,PingFang SC,Mircrosoft YaHei,Arial;font-size:15.00pt"><tspan y="19.0" style="font-size:10.00pt" x="56.0">1</tspan></text></g><g transform="translate(337.976500,268.480134)" id="shape13"><text xml:space="preserve" style="fill:#191919;font-family:微软雅黑,PingFang SC,Mircrosoft YaHei,Arial;font-size:15.00pt"><tspan y="19.0" style="font-size:10.00pt" x="56.0">1</tspan></text></g><g transform="translate(475.929134,127.094488)" id="shape14"><path fill="none" stroke-width="1" d="M.0,.0L.0,50.7" stroke="#191919"/><path stroke-linecap="round" fill="#191919" stroke-width="1" d="M3.0,50.7L.0,56.7L-3.0,50.7L3.0,50.7" stroke="#191919"/></g></g></svg>